<?xml version="1.0" standalone="no"?>
<!DOCTYPE svg PUBLIC "-//W3C//DTD SVG 20010904//EN"
 "http://www.w3.org/TR/2001/REC-SVG-20010904/DTD/svg10.dtd">
<svg version="1.0" xmlns="http://www.w3.org/2000/svg"
 width="1024.000000pt" height="1024.000000pt" viewBox="0 0 1024.000000 1024.000000"
 preserveAspectRatio="xMidYMid meet">
<metadata>
Created by potrace 1.14, written by Peter Selinger 2001-2017
</metadata>
<g transform="translate(0.000000,1024.000000) scale(0.100000,-0.100000)"
fill="#000000" stroke="none">
<path d="M1716 7748 c-57 -33 -86 -93 -86 -177 1 -227 61 -459 159 -613 22
-34 39 -64 37 -65 -1 -1 -27 7 -57 18 -97 37 -174 16 -228 -62 -21 -31 -23
-42 -18 -114 15 -239 197 -557 417 -728 l35 -27 -56 0 c-136 0 -214 -34 -250
-108 -44 -90 -4 -184 142 -332 136 -137 313 -246 489 -301 41 -13 77 -24 79
-26 2 -1 -10 -14 -27 -28 -60 -50 -67 -145 -17 -211 61 -80 281 -198 465 -250
81 -23 118 -27 255 -30 116 -2 170 -7 197 -18 47 -20 114 -20 190 0 33 8 61
14 63 12 1 -2 14 -26 30 -55 53 -99 167 -185 224 -170 17 4 21 -1 26 -27 106
-652 256 -1003 563 -1320 100 -103 187 -175 303 -251 199 -130 242 -160 291
-203 42 -38 48 -49 48 -83 0 -78 49 -129 125 -129 76 0 127 51 127 126 0 40 4
48 51 90 29 26 99 77 157 115 222 144 279 188 400 309 306 306 469 659 581
1261 19 105 23 116 41 111 58 -15 169 69 222 169 16 30 30 55 31 57 2 2 30 -4
63 -12 77 -20 143 -20 190 0 28 12 66 16 153 15 227 -4 440 57 638 180 119 75
161 126 161 199 0 45 -31 114 -55 123 -28 11 -15 22 48 40 226 67 480 249 613
442 36 53 39 63 39 124 0 120 -57 165 -230 179 l-90 7 36 22 c62 39 192 184
254 283 103 167 186 411 170 500 -10 54 -42 97 -89 119 -59 29 -114 25 -209
-14 -13 -5 -7 10 22 54 101 156 161 382 161 603 0 104 -15 145 -67 185 -48 37
-126 43 -185 14 -24 -11 -116 -85 -205 -165 -372 -330 -566 -427 -1118 -561
-99 -24 -218 -57 -264 -74 -290 -106 -505 -318 -567 -561 -16 -65 -16 -160 2
-337 4 -34 3 -74 0 -88 -7 -26 -7 -26 -72 33 -120 108 -312 207 -503 258 -82
22 -101 31 -101 46 0 41 82 367 121 481 66 195 138 326 255 464 52 61 59 78
54 133 -8 101 -156 242 -303 289 -137 43 -180 37 -249 -37 -158 -169 -313
-498 -408 -867 -25 -96 -100 -443 -100 -461 0 -2 -17 -4 -37 -4 -52 -1 -199
-34 -313 -71 -172 -56 -325 -140 -442 -241 l-57 -49 -7 36 c-4 21 1 92 11 164
14 104 15 139 6 199 -33 211 -172 393 -406 530 -105 61 -206 98 -408 148 -354
88 -508 141 -687 236 -157 83 -259 158 -465 342 -156 139 -203 169 -273 173
-46 3 -65 -1 -96 -19z m263 -337 c356 -316 602 -440 1142 -576 265 -67 356
-101 471 -178 102 -68 166 -137 213 -229 55 -110 62 -160 40 -292 -23 -141
-17 -213 24 -334 29 -83 32 -101 26 -158 -4 -35 -11 -64 -16 -64 -17 0 -58 97
-103 248 -85 282 -175 413 -369 540 -122 78 -207 112 -492 192 -172 48 -386
144 -535 238 -145 93 -249 192 -328 314 -143 220 -199 324 -209 385 -7 45 -19
52 136 -86z m6415 92 c-14 -59 -48 -132 -112 -243 -128 -223 -220 -325 -399
-443 -205 -136 -349 -196 -713 -296 -208 -58 -368 -147 -495 -275 -110 -111
-164 -217 -221 -434 -27 -103 -61 -188 -92 -227 l-19 -24 -7 75 c-5 68 -3 84
25 162 39 111 46 203 25 343 -19 124 -12 180 33 274 63 131 169 228 338 311
74 37 145 59 365 114 329 82 436 119 633 216 172 85 291 169 496 353 74 67
137 121 142 121 4 0 4 -12 1 -27z m-2819 -23 l26 -10 -33 -36 c-18 -20 -33
-41 -33 -46 0 -18 31 -32 51 -23 11 4 23 7 27 6 5 -1 5 3 2 9 -4 7 3 22 15 35
l23 24 39 -30 39 -31 -114 -112 c-166 -162 -249 -297 -327 -535 -21 -64 -49
-164 -61 -223 l-24 -108 -42 0 c-24 0 -43 2 -43 4 0 14 44 213 69 312 72 283
185 549 303 708 26 36 50 66 52 66 3 0 16 -4 31 -10z m-3687 -844 c81 -40 196
-95 255 -120 59 -26 186 -87 281 -136 95 -48 198 -96 229 -106 32 -10 54 -21
50 -24 -5 -4 -36 -17 -71 -30 -62 -22 -103 -53 -132 -98 -14 -22 -17 -22 -70
-11 -197 42 -380 167 -530 362 -39 51 -93 121 -120 156 -46 59 -58 81 -45 81
3 0 72 -33 153 -74z m6605 44 c-9 -17 -42 -61 -71 -98 -30 -37 -66 -85 -81
-107 -67 -103 -230 -239 -357 -299 -66 -32 -200 -76 -229 -76 -6 0 -19 15 -29
34 -20 37 -64 65 -143 91 -58 18 -66 30 -29 39 50 13 197 79 298 136 59 32
169 86 245 120 76 34 194 90 263 124 148 74 158 77 133 36z m-5352 -576 c83
-44 165 -120 207 -194 18 -30 32 -58 32 -62 0 -13 -117 -9 -193 7 -70 14 -190
53 -402 130 -55 19 -107 38 -115 41 -21 7 0 18 108 56 192 66 269 71 363 22z
m4156 21 c108 -20 273 -78 273 -94 0 -3 -31 -16 -68 -28 -37 -12 -140 -47
-228 -77 -89 -30 -197 -62 -240 -70 -76 -15 -194 -26 -194 -19 0 2 12 27 26
56 37 73 136 167 219 210 79 41 101 43 212 22z m-1823 -44 c169 -34 304 -88
444 -177 54 -35 63 -53 37 -74 -18 -15 -57 -11 -221 24 -224 48 -335 59 -569
60 -121 1 -258 -3 -304 -7 l-83 -8 7 38 c7 41 50 126 72 145 27 22 89 27 298
24 166 -3 232 -8 319 -25z m-2799 -297 c47 -38 127 -88 192 -121 l113 -56 -28
-32 c-35 -42 -98 -56 -282 -62 -151 -6 -262 9 -399 52 -97 31 -251 101 -251
115 0 6 -7 10 -15 10 -8 0 -15 4 -15 8 0 5 -18 15 -40 22 -22 7 -47 21 -55 30
-14 16 -6 17 123 23 155 6 365 31 486 57 45 9 83 18 86 18 3 1 41 -28 85 -64z
m5113 37 c151 -26 390 -51 489 -51 l78 -1 -24 -19 c-13 -11 -29 -20 -36 -20
-7 0 -15 -4 -17 -8 -3 -9 -54 -39 -145 -88 -75 -40 -228 -88 -347 -109 -106
-18 -282 -19 -387 -1 -69 11 -81 16 -113 51 -20 21 -35 39 -34 40 2 1 26 10
53 20 66 23 196 101 275 165 35 28 70 48 77 46 8 -3 66 -15 131 -25z m-2312
-231 c230 -25 549 -107 687 -175 211 -106 370 -302 392 -482 3 -26 2 -60 -2
-76 l-8 -27 -40 27 c-62 42 -271 142 -375 180 -264 94 -525 143 -876 164 -253
14 -483 -1 -821 -57 l-42 -6 19 69 c10 38 28 90 39 115 18 43 22 47 73 57 83
18 174 50 202 72 50 39 25 77 -54 82 -22 1 -40 3 -40 4 0 1 20 14 43 28 38 22
62 26 178 34 156 11 483 6 625 -9z m-1996 -75 c12 -36 37 -89 56 -116 19 -28
34 -52 34 -53 0 -1 -28 0 -62 2 -69 5 -147 24 -281 71 -48 17 -96 31 -107 31
-32 0 -32 17 0 30 35 15 310 98 327 99 6 1 21 -28 33 -64z m3370 45 c105 -29
263 -81 273 -90 5 -5 -17 -15 -50 -24 -32 -9 -103 -33 -158 -52 -107 -38 -255
-58 -255 -35 0 6 16 34 35 62 19 28 42 75 52 105 9 30 19 54 23 54 3 0 39 -9
80 -20z m-3742 -353 c31 -24 90 -62 130 -84 l73 -40 -63 -27 c-148 -61 -331
-76 -481 -37 -43 12 -108 24 -143 27 -35 4 -64 10 -64 13 0 3 70 28 155 55 85
27 194 68 242 92 48 23 89 43 91 43 2 1 29 -19 60 -42z m4144 6 c40 -20 151
-62 247 -93 96 -31 170 -59 165 -62 -5 -3 -31 -9 -59 -13 -27 -4 -86 -15 -130
-26 -153 -36 -324 -23 -494 37 l-73 27 68 34 c38 19 98 57 134 83 36 27 66 49
67 49 1 1 35 -15 75 -36z m-1867 -449 c9 -4 15 -24 17 -57 4 -68 22 -67 26 1
2 42 6 52 21 52 20 0 237 -38 265 -46 17 -6 18 -16 12 -198 -3 -105 -6 -220
-6 -256 l0 -66 -129 -173 c-70 -95 -132 -172 -137 -171 -5 1 -82 80 -171 177
l-163 175 0 240 c0 157 -3 237 -10 233 -6 -4 -10 -97 -10 -245 0 -206 -2 -240
-16 -248 -8 -5 -88 -81 -178 -170 l-162 -162 -95 136 c-52 76 -106 155 -121
177 l-28 40 0 257 0 257 104 17 c58 9 123 16 145 16 l41 0 0 -50 c0 -38 4 -50
15 -50 11 0 15 13 15 54 l0 54 63 6 c34 3 78 8 97 10 46 6 387 -3 405 -10z
m520 -111 c115 -37 271 -95 317 -119 22 -11 27 -20 23 -42 -53 -329 -137 -637
-215 -792 -35 -69 -101 -152 -200 -250 -128 -127 -101 -130 -237 22 -182 202
-169 179 -155 257 7 41 18 72 29 81 19 15 184 236 238 318 15 23 31 42 36 42
4 0 46 -57 93 -127 101 -152 132 -190 141 -181 4 4 -35 67 -86 140 -51 73
-103 148 -116 167 -23 33 -23 38 -23 283 l0 249 23 -6 c12 -4 72 -23 132 -42z
m-1445 -189 l0 -216 -61 -70 c-34 -38 -70 -73 -81 -79 -27 -14 -73 16 -92 60
-16 39 -66 333 -66 392 l0 37 138 46 c75 25 143 46 150 46 9 0 12 -50 12 -216z
m830 -533 c36 -41 80 -89 98 -105 l33 -31 -13 -77 -13 -78 -134 -150 c-73 -82
-138 -150 -145 -150 -12 0 -211 211 -283 300 -20 25 -36 60 -43 96 l-12 56 54
57 c29 31 103 107 163 169 l109 112 61 -62 c34 -35 90 -96 125 -137z m-706 34
c127 -184 122 -179 141 -171 35 13 7 -25 -101 -138 -71 -74 -119 -116 -132
-116 -11 0 -34 16 -51 36 -32 40 -121 243 -121 278 0 36 147 274 160 259 4 -4
50 -71 104 -148z m906 -497 c47 -61 94 -120 104 -131 19 -20 19 -20 -4 -39
-12 -10 -28 -18 -35 -18 -12 0 -64 59 -97 110 -9 14 -26 36 -38 50 -12 14 -30
41 -40 61 -17 32 -17 38 -4 58 8 11 18 21 22 20 4 0 45 -50 92 -111z m-197
-116 c15 -38 43 -95 63 -128 32 -53 34 -60 19 -69 -10 -5 -70 -43 -134 -84
-64 -40 -121 -76 -128 -78 -6 -3 -65 27 -130 66 -65 39 -124 75 -132 79 -12 7
-3 31 49 125 36 64 67 117 71 117 4 0 28 -25 54 -55 39 -46 52 -55 80 -55 27
0 41 9 80 53 26 28 52 62 58 75 6 12 13 22 16 22 3 0 18 -31 34 -68z"/>
</g>
</svg>
